<?xml version="1.0"?>
<svg xmlns="http://www.w3.org/2000/svg" id="Solid" height="512px" viewBox="0 0 512 512" width="512px"><g><path d="m391.968 146.624a341.723 341.723 0 0 1 -27.011 131.284 342.818 342.818 0 0 1 -73.712 109.337 343 343 0 0 1 -243.245 100.755 24 24 0 0 1 0-48 294.062 294.062 0 0 0 209.3-86.7 294 294 0 0 0 86.667-206.59l24.033-32.044zm86.432 48.576a24 24 0 0 0 4.8-33.6l-96-128a24 24 0 0 0 -38.4 0l-96 128a24 24 0 1 0 38.4 28.8l76.8-102.4 76.8 102.4a24 24 0 0 0 33.6 4.8z" data-original="#000000" class="active-path" data-old_color="#000000" fill="#FFFFFF"/></g> </svg>
